# xmcd
#
# Track frame offsets:
#	150
#	47312
#	81777
#	116257
#	140425
#
# Disc length: 2144 seconds
#
# Revision: 0
# Processed by: cddbd v1.5.2PL0 Copyright (c) Steve Scherf et al.
# Submitted via: audiograbber 1.83.01
#
DISCID=32085e05
DTITLE=Mariah Carey - Can't Take That Away (Mariah's Theme)
DYEAR=2000
DGENRE=R&B
TTITLE0=Can't Take That Away (Mariah's Theme) [Morales Revival Triumphant Mix]
TTITLE1=Can't Take That Away (Mariah's Theme) [Morales Club Mix]
TTITLE2=Can't Take That Away (Mariah's Theme) [Morales Instrumental]
TTITLE3=Crybaby (Featuring Snoop Dog)
TTITLE4=Can't Take That Away (Mariah's Theme) [Album Version]
EXTD=
EXTT0=
EXTT1=
EXTT2=
EXTT3=
EXTT4=
PLAYORDER=
